<?xml version="1.0" standalone="no"?>
<!DOCTYPE svg PUBLIC "-//W3C//DTD SVG 20010904//EN"
 "http://www.w3.org/TR/2001/REC-SVG-20010904/DTD/svg10.dtd">
<svg version="1.0" xmlns="http://www.w3.org/2000/svg"
 width="2126.000000pt" height="2126.000000pt" viewBox="0 0 2126.000000 2126.000000"
 preserveAspectRatio="xMidYMid meet">
<metadata>
Created by potrace 1.14, written by Peter Selinger 2001-2017
</metadata>
<g transform="translate(0.000000,2126.000000) scale(0.100000,-0.100000)"
fill="#000000" stroke="none">
<path d="M609 21256 c-2 -2 -30 -6 -62 -10 -267 -28 -474 -195 -521 -419 -13
-61 -13 -146 1 -197 3 -14 7 -30 9 -36 10 -51 73 -152 130 -209 90 -90 192
-138 359 -170 46 -9 430 -14 1100 -15 376 -1 627 -5 655 -11 51 -12 135 -47
128 -54 -2 -2 -22 -7 -44 -10 -21 -3 -50 -8 -64 -11 -14 -2 -38 -7 -54 -10
-27 -5 -177 -40 -201 -48 -5 -1 -30 -8 -55 -15 -237 -66 -521 -202 -750 -360
-65 -44 -141 -100 -150 -111 -3 -3 -18 -16 -35 -29 -53 -41 -173 -151 -237
-219 -89 -92 -88 -92 -138 -152 -25 -30 -47 -57 -50 -60 -11 -10 -108 -147
-157 -220 -134 -204 -244 -433 -322 -673 -41 -127 -87 -305 -96 -372 -2 -19
-7 -52 -11 -72 -4 -21 -8 -46 -10 -55 -9 -52 -18 -220 -18 -333 1 -183 16
-351 45 -494 6 -30 12 -64 14 -75 10 -84 92 -354 152 -501 92 -227 239 -488
370 -655 453 -582 1047 -947 1738 -1068 61 -11 117 -20 125 -20 8 -1 49 -5 90
-9 150 -16 501 -9 660 13 39 5 219 39 260 49 122 28 285 78 370 113 14 5 45
18 70 28 61 24 294 138 350 171 544 320 951 784 1178 1344 56 139 108 303 145
459 24 98 28 121 43 218 3 20 7 44 9 52 26 102 27 611 1 745 -4 23 -16 106
-17 117 0 4 -5 22 -10 40 -5 18 -12 47 -15 63 -3 17 -7 35 -8 40 -81 320 -222
627 -427 930 -123 181 -201 275 -364 439 -334 337 -720 559 -1220 701 -33 9
-69 19 -80 21 -11 2 -41 8 -66 14 -56 14 -71 16 -131 26 -27 3 -48 10 -48 15
0 5 21 10 48 10 26 1 61 3 77 4 27 3 193 12 365 20 567 27 2910 27 3860 0 612
-17 844 -28 1070 -50 84 -8 133 -25 72 -25 -40 0 -258 -44 -347 -71 -38 -11
-74 -21 -80 -22 -5 -2 -23 -8 -40 -14 -16 -6 -68 -26 -115 -43 -109 -41 -310
-141 -425 -213 -258 -160 -494 -366 -683 -597 -20 -25 -39 -47 -42 -50 -3 -3
-23 -30 -45 -60 -22 -30 -42 -57 -45 -60 -9 -8 -120 -178 -120 -184 0 -3 -11
-21 -24 -41 -57 -83 -224 -455 -228 -505 0 -3 -4 -13 -10 -23 -12 -22 -61
-198 -81 -292 -16 -73 -22 -105 -32 -190 -4 -27 -9 -61 -12 -75 -9 -45 -11
-423 -2 -505 16 -158 20 -191 29 -240 5 -27 11 -61 14 -75 41 -243 124 -504
237 -740 140 -291 299 -519 519 -741 95 -96 138 -135 226 -209 47 -39 193
-142 279 -196 259 -163 672 -323 955 -369 25 -4 54 -9 65 -11 68 -13 188 -29
305 -40 60 -5 403 -6 440 0 19 3 62 8 95 11 33 3 110 15 170 25 846 150 1602
724 1996 1515 39 78 65 139 135 315 15 38 81 266 88 305 3 14 10 51 16 83 5
31 12 67 14 79 3 11 8 43 12 70 3 26 8 57 10 67 18 102 26 494 12 631 -45 432
-182 820 -422 1195 -202 315 -390 523 -695 772 -104 85 -389 248 -571 326 -67
29 -279 99 -367 121 -87 22 -98 24 -236 50 -53 10 -100 19 -102 20 -3 0 -13 1
-23 1 -15 0 -18 6 -14 28 l4 27 1026 2 c565 1 1347 2 1737 3 391 1 729 -2 752
-6 63 -10 84 -34 78 -92 -2 -26 -6 -57 -9 -69 -10 -45 -87 -339 -96 -363 -4
-14 -29 -106 -55 -205 -26 -99 -51 -193 -56 -210 -5 -16 -30 -106 -54 -200
-25 -93 -59 -219 -76 -280 -17 -60 -33 -118 -35 -129 -4 -20 -205 -769 -229
-851 -8 -27 -24 -86 -35 -130 -12 -44 -28 -105 -36 -135 -8 -30 -26 -95 -39
-145 -46 -171 -57 -211 -147 -545 -49 -184 -92 -342 -93 -350 -2 -8 -38 -141
-80 -295 -42 -154 -89 -329 -105 -390 -16 -60 -77 -288 -135 -505 -58 -217
-108 -402 -110 -410 -2 -8 -31 -118 -65 -245 -34 -126 -64 -237 -66 -245 -1
-8 -25 -98 -53 -200 -67 -249 -252 -941 -257 -960 -15 -61 -66 -252 -88 -333
-15 -53 -29 -105 -31 -115 -2 -9 -38 -145 -80 -300 -42 -156 -78 -291 -80
-300 -2 -10 -25 -93 -51 -187 -41 -151 -67 -249 -78 -295 -2 -8 -32 -118 -66
-245 -34 -126 -79 -295 -100 -375 -21 -80 -55 -206 -75 -280 -20 -74 -47 -175
-60 -225 -13 -49 -33 -126 -45 -170 -12 -44 -26 -96 -31 -115 -5 -19 -12 -43
-14 -53 -2 -10 -7 -27 -10 -37 -3 -10 -8 -27 -10 -37 -2 -10 -18 -70 -35 -133
-18 -63 -33 -122 -35 -130 -4 -18 -26 -100 -61 -228 -14 -51 -27 -100 -29
-110 -3 -9 -20 -75 -40 -147 -19 -71 -37 -139 -40 -150 -2 -11 -31 -121 -65
-245 -33 -124 -72 -268 -86 -320 -14 -52 -34 -129 -45 -170 -105 -391 -135
-501 -161 -600 -16 -63 -32 -122 -33 -130 -2 -8 -18 -64 -35 -125 -16 -60 -32
-120 -35 -133 -2 -13 -9 -38 -14 -55 -9 -28 -106 -387 -116 -427 -2 -8 -17
-67 -34 -130 -17 -63 -47 -173 -66 -245 -18 -71 -41 -157 -50 -190 -9 -33 -18
-68 -21 -78 -9 -37 -15 -60 -79 -297 -74 -275 -165 -617 -171 -640 -1 -8 -15
-58 -29 -110 -15 -52 -28 -102 -30 -110 -2 -8 -17 -67 -35 -130 -17 -63 -33
-122 -35 -132 -2 -9 -37 -141 -78 -295 -42 -153 -99 -366 -127 -473 -28 -107
-62 -233 -75 -280 -13 -47 -35 -128 -49 -180 -14 -52 -53 -198 -86 -325 -69
-257 -64 -238 -85 -320 -9 -33 -18 -67 -20 -75 -2 -8 -34 -125 -70 -260 -37
-135 -73 -270 -82 -300 -8 -30 -17 -65 -19 -77 -2 -12 -9 -34 -14 -48 -5 -14
-7 -25 -4 -25 2 0 0 -8 -5 -18 -6 -11 -12 -30 -15 -43 -2 -13 -32 -127 -66
-254 -34 -126 -70 -262 -80 -300 -11 -39 -22 -86 -25 -105 -6 -36 -30 -70 -49
-70 -6 1 -27 35 -45 78 -207 463 -479 904 -720 1167 -179 195 -467 452 -666
594 -55 39 -105 75 -112 81 -28 23 -196 127 -312 194 -323 185 -723 349 -1051
431 -44 11 -239 55 -265 59 -16 3 -41 8 -55 11 -14 3 -45 8 -70 11 -25 3 -52
8 -60 9 -9 2 -43 6 -75 10 -33 4 -71 9 -85 11 -69 11 -247 19 -445 19 -239 0
-382 -8 -530 -30 -16 -2 -52 -7 -80 -10 -27 -4 -57 -8 -65 -10 -8 -2 -31 -7
-50 -10 -244 -40 -636 -153 -845 -244 -11 -5 -49 -21 -85 -36 -108 -46 -351
-170 -450 -229 -51 -31 -95 -56 -97 -56 -9 0 -261 -176 -354 -246 -242 -186
-501 -434 -711 -680 -261 -309 -474 -643 -638 -999 -72 -156 -198 -504 -215
-596 -2 -11 -7 -29 -10 -39 -3 -10 -8 -27 -10 -37 -2 -10 -13 -56 -24 -103
-21 -88 -55 -290 -67 -395 -3 -33 -8 -69 -10 -79 -2 -11 -7 -81 -10 -156 -9
-194 12 -248 105 -269 31 -7 1419 -10 4306 -9 3514 1 4268 3 4305 14 88 26
163 117 185 224 4 19 15 64 26 99 11 35 22 77 25 94 2 17 7 34 10 39 3 4 7 17
9 27 2 11 13 53 24 93 17 63 65 242 77 288 2 8 17 67 34 130 17 63 32 122 34
130 2 8 22 80 44 160 22 80 56 210 77 290 20 80 42 161 48 180 6 19 12 40 13
45 1 6 7 30 15 55 7 25 14 54 16 65 2 11 12 49 22 85 17 58 30 106 36 135 2 6
8 30 15 55 7 25 12 46 12 47 -1 2 4 17 9 35 6 18 25 89 43 158 71 267 147 548
167 620 12 41 23 83 25 93 2 10 19 78 39 150 20 73 38 139 40 147 2 8 55 209
118 445 63 237 118 444 122 460 5 17 9 35 11 40 10 32 37 132 39 145 2 8 21
83 44 165 22 83 69 258 105 390 35 132 77 285 91 340 15 55 33 123 40 150 32
121 70 264 164 615 56 206 120 445 142 530 23 85 55 202 71 260 15 58 30 114
32 125 3 11 11 45 19 75 24 85 182 673 212 785 15 55 40 150 56 210 16 61 32
118 34 127 3 10 7 26 9 35 3 10 23 86 45 168 22 83 69 260 105 395 36 135 70
259 75 275 8 24 40 148 56 215 2 8 23 83 45 165 23 83 52 191 65 240 13 50 31
115 39 145 8 30 49 183 91 340 42 157 83 308 91 336 8 28 16 60 18 70 2 11 25
98 51 194 89 329 116 429 120 447 3 10 18 68 35 128 16 61 32 119 34 130 3 11
14 52 24 90 11 39 36 131 56 205 20 74 63 236 96 360 34 124 63 236 66 250 2
14 9 36 14 50 8 21 30 106 45 170 8 33 136 507 145 535 5 17 11 41 14 55 3 14
12 50 21 80 9 30 17 62 19 70 2 8 59 219 126 468 66 249 123 460 125 470 2 9
11 42 20 72 9 30 18 63 20 73 6 26 83 313 100 372 8 28 28 104 45 170 17 66
35 131 40 145 5 14 12 36 14 50 3 14 23 93 46 175 60 222 75 278 110 410 17
66 40 152 51 190 11 39 22 77 24 85 4 18 35 133 104 390 107 400 163 608 182
677 11 40 22 80 24 90 2 10 20 77 40 150 20 72 38 140 40 150 3 10 27 101 55
203 27 102 52 194 55 205 2 11 18 70 34 130 33 121 131 486 162 605 11 41 75
278 141 525 124 464 145 544 153 583 3 12 17 59 31 105 44 136 98 200 197 228
32 10 745 12 3172 11 3403 -2 3218 -5 3364 52 132 52 235 145 292 262 38 78
41 91 45 199 8 244 -147 443 -401 517 l-80 23 -10081 3 c-5544 1 -10083 0
-10085 -2z m3806 -18060 c72 -4 144 -9 160 -11 53 -8 229 -34 270 -40 22 -3
54 -10 70 -15 24 -7 102 -24 161 -36 40 -7 298 -93 394 -131 216 -85 470 -220
639 -341 179 -127 425 -361 551 -522 19 -25 37 -47 41 -50 11 -9 144 -193 212
-293 70 -103 223 -356 295 -488 23 -41 45 -96 48 -121 6 -43 4 -47 -22 -64
-27 -18 -123 -19 -2958 -20 -2008 -1 -2940 2 -2963 9 -75 23 -70 87 20 271
247 501 546 874 967 1207 107 84 376 259 399 259 5 0 19 8 32 19 13 10 35 22
48 26 13 4 40 17 60 29 63 37 364 156 461 182 83 22 250 64 270 68 236 44 314
53 505 62 72 4 131 7 132 8 2 1 53 -1 208 -8z"/>
<path d="M16378 9555 c-2 -2 -50 -5 -108 -9 -120 -6 -222 -14 -265 -21 -16 -2
-52 -7 -80 -10 -44 -5 -232 -35 -320 -51 -233 -41 -762 -194 -910 -264 -11 -5
-49 -21 -85 -36 -222 -90 -480 -223 -695 -357 -476 -298 -911 -694 -1236
-1127 -43 -58 -82 -109 -87 -115 -4 -5 -16 -23 -26 -40 -11 -16 -23 -34 -28
-40 -13 -16 -118 -176 -118 -180 0 -2 -23 -41 -51 -87 -122 -200 -288 -564
-376 -823 -39 -113 -98 -309 -108 -355 -2 -8 -12 -51 -23 -95 -32 -133 -67
-307 -77 -395 -4 -30 -8 -57 -10 -60 -2 -3 -6 -41 -10 -85 -4 -44 -9 -88 -11
-97 -2 -16 -7 -70 -20 -228 -4 -57 -4 -539 0 -605 5 -77 17 -207 21 -240 13
-94 27 -205 31 -235 2 -19 6 -44 9 -56 2 -12 7 -39 11 -60 3 -21 14 -79 25
-129 11 -49 22 -101 25 -115 3 -14 16 -68 30 -120 14 -52 27 -102 29 -110 12
-50 95 -296 140 -410 89 -227 215 -492 288 -607 15 -24 27 -45 27 -48 0 -9
132 -216 204 -320 65 -93 173 -237 222 -295 249 -294 459 -496 774 -743 288
-226 699 -457 1105 -622 197 -81 626 -210 790 -239 17 -3 44 -8 60 -11 65 -13
192 -35 235 -40 25 -3 56 -8 70 -10 14 -2 50 -7 80 -10 30 -3 73 -8 95 -10
135 -14 207 -18 445 -20 146 -1 308 2 360 6 185 15 241 20 258 24 9 1 44 6 77
10 235 26 602 108 845 187 400 130 764 301 1105 518 749 476 1354 1174 1730
1995 47 104 166 407 199 510 120 375 195 771 223 1170 14 209 8 717 -11 835
-4 25 -17 128 -21 165 -9 87 -59 358 -90 487 -48 201 -162 560 -200 630 -8 14
-15 31 -15 38 0 6 -9 30 -20 52 -11 23 -20 48 -20 55 0 7 -4 13 -10 13 -5 0
-10 7 -10 16 0 35 -278 562 -302 572 -4 2 -8 8 -8 13 0 8 -67 116 -80 129 -3
3 -9 13 -15 22 -26 45 -188 263 -250 337 -247 298 -480 522 -772 747 -199 154
-373 270 -530 356 -32 17 -76 42 -98 55 -73 42 -318 159 -425 203 -58 23 -118
49 -135 56 -49 21 -354 121 -435 143 -139 38 -195 51 -270 67 -41 9 -84 18
-95 21 -65 14 -361 61 -440 68 -22 3 -62 7 -90 10 -127 13 -518 28 -527 20z
m382 -1059 c19 -2 69 -7 110 -11 41 -4 86 -8 100 -10 14 -2 48 -6 75 -10 39
-5 192 -33 326 -60 113 -23 410 -117 579 -184 108 -43 383 -175 410 -196 8 -7
40 -26 71 -42 50 -28 272 -170 309 -199 138 -109 229 -184 290 -240 518 -473
880 -1074 1060 -1759 21 -82 41 -161 44 -175 4 -23 18 -98 21 -110 1 -3 5 -27
10 -55 4 -27 9 -57 10 -65 2 -9 6 -43 10 -75 4 -33 9 -69 11 -80 18 -95 26
-665 12 -837 -28 -321 -112 -672 -240 -992 -41 -104 -157 -345 -205 -428 -151
-256 -318 -485 -487 -667 -519 -557 -1142 -927 -1878 -1115 -73 -19 -149 -37
-168 -40 -19 -3 -44 -7 -55 -10 -32 -6 -109 -19 -125 -21 -19 -2 -126 -15
-165 -20 -198 -24 -616 -24 -810 0 -16 2 -52 6 -80 9 -27 3 -59 8 -70 10 -11
2 -45 7 -75 12 -30 4 -57 8 -60 9 -3 1 -21 4 -40 9 -315 66 -461 109 -709 207
-317 127 -687 342 -926 540 -190 158 -373 337 -502 493 -106 127 -239 315
-326 458 -72 120 -217 406 -232 458 -1 3 -9 23 -19 45 -31 71 -124 357 -150
460 -31 124 -71 322 -81 400 -22 176 -24 203 -31 310 -6 106 -6 409 0 485 2
25 7 81 11 125 3 44 8 91 10 105 2 14 7 49 10 79 4 30 9 63 11 75 2 12 9 50
15 86 6 36 20 103 31 150 11 47 21 92 23 100 18 86 105 367 130 425 8 17 30
71 50 120 84 206 274 561 345 642 5 7 10 15 10 18 0 3 21 34 48 69 26 35 56
77 67 92 105 148 395 449 579 602 80 67 367 272 380 272 3 0 36 19 73 43 155
99 443 230 678 310 122 41 416 119 495 131 54 8 110 17 134 22 11 2 48 6 81
10 33 3 66 7 72 9 7 3 64 7 125 11 62 3 114 8 116 9 5 4 452 -4 492 -9z"/>
</g>
</svg>
